<svg width="44" height="44" viewBox="0 0 44 44" fill="none" xmlns="http://www.w3.org/2000/svg">
<rect x="0.458333" y="0.458333" width="43.0833" height="43.0833" rx="21.5417" stroke="white" stroke-width="0.916667"/>
<path fill-rule="evenodd" clip-rule="evenodd" d="M19.25 15.125C19.3994 15.125 19.5447 15.1737 19.6639 15.2637C19.7832 15.3537 19.8699 15.48 19.9109 15.6237L20.6562 18.2325C20.8166 18.7943 21.1177 19.306 21.5308 19.7192C21.944 20.1323 22.4557 20.4334 23.0175 20.5938L25.6263 21.3391C25.7699 21.3802 25.8961 21.4669 25.986 21.5862C26.0759 21.7054 26.1245 21.8507 26.1245 22C26.1245 22.1493 26.0759 22.2946 25.986 22.4138C25.8961 22.5331 25.7699 22.6198 25.6263 22.6609L23.0175 23.4062C22.4557 23.5666 21.944 23.8677 21.5308 24.2808C21.1177 24.694 20.8166 25.2057 20.6562 25.7675L19.9109 28.3763C19.8698 28.5199 19.7831 28.6461 19.6638 28.736C19.5446 28.8259 19.3993 28.8745 19.25 28.8745C19.1007 28.8745 18.9554 28.8259 18.8362 28.736C18.7169 28.6461 18.6302 28.5199 18.5891 28.3763L17.8438 25.7675C17.6834 25.2057 17.3823 24.694 16.9692 24.2808C16.556 23.8677 16.0443 23.5666 15.4825 23.4062L12.8737 22.6609C12.7301 22.6198 12.6039 22.5331 12.514 22.4138C12.4241 22.2946 12.3755 22.1493 12.3755 22C12.3755 21.8507 12.4241 21.7054 12.514 21.5862C12.6039 21.4669 12.7301 21.3802 12.8737 21.3391L15.4825 20.5938C16.0443 20.4334 16.556 20.1323 16.9692 19.7192C17.3823 19.306 17.6834 18.7943 17.8438 18.2325L18.5891 15.6237C18.6301 15.48 18.7168 15.3537 18.8361 15.2637C18.9553 15.1737 19.1006 15.125 19.25 15.125ZM27.5 12.375C27.6534 12.3749 27.8024 12.4261 27.9233 12.5205C28.0442 12.6148 28.1301 12.7469 28.1673 12.8957L28.4038 13.8453C28.6202 14.707 29.293 15.3798 30.1547 15.5962L31.1043 15.8327C31.2534 15.8696 31.3858 15.9554 31.4805 16.0763C31.5751 16.1973 31.6265 16.3464 31.6265 16.5C31.6265 16.6536 31.5751 16.8027 31.4805 16.9237C31.3858 17.0446 31.2534 17.1304 31.1043 17.1673L30.1547 17.4038C29.293 17.6202 28.6202 18.293 28.4038 19.1547L28.1673 20.1043C28.1304 20.2534 28.0446 20.3858 27.9237 20.4805C27.8027 20.5751 27.6536 20.6265 27.5 20.6265C27.3464 20.6265 27.1973 20.5751 27.0763 20.4805C26.9554 20.3858 26.8696 20.2534 26.8327 20.1043L26.5962 19.1547C26.4904 18.7316 26.2716 18.3452 25.9632 18.0368C25.6548 17.7284 25.2684 17.5096 24.8453 17.4038L23.8957 17.1673C23.7466 17.1304 23.6142 17.0446 23.5195 16.9237C23.4249 16.8027 23.3735 16.6536 23.3735 16.5C23.3735 16.3464 23.4249 16.1973 23.5195 16.0763C23.6142 15.9554 23.7466 15.8696 23.8957 15.8327L24.8453 15.5962C25.2684 15.4904 25.6548 15.2716 25.9632 14.9632C26.2716 14.6548 26.4904 14.2684 26.5962 13.8453L26.8327 12.8957C26.8699 12.7469 26.9558 12.6148 27.0767 12.5205C27.1976 12.4261 27.3466 12.3749 27.5 12.375ZM26.125 24.75C26.2694 24.7499 26.4101 24.7953 26.5273 24.8797C26.6444 24.9641 26.732 25.0833 26.7777 25.2203L27.1388 26.3047C27.2763 26.7144 27.5972 27.0371 28.0078 27.1737L29.0922 27.5358C29.2288 27.5816 29.3475 27.6692 29.4316 27.7861C29.5157 27.9031 29.5609 28.0435 29.5609 28.1875C29.5609 28.3315 29.5157 28.4719 29.4316 28.5889C29.3475 28.7058 29.2288 28.7934 29.0922 28.8393L28.0078 29.2013C27.5981 29.3388 27.2754 29.6597 27.1388 30.0703L26.7767 31.1548C26.7309 31.2913 26.6433 31.41 26.5264 31.4941C26.4094 31.5782 26.269 31.6234 26.125 31.6234C25.981 31.6234 25.8405 31.5782 25.7236 31.4941C25.6067 31.41 25.5191 31.2913 25.4732 31.1548L25.1112 30.0703C25.0436 29.868 24.93 29.6842 24.7791 29.5333C24.6283 29.3825 24.4445 29.2689 24.2422 29.2013L23.1577 28.8393C23.0212 28.7934 22.9025 28.7058 22.8184 28.5889C22.7343 28.4719 22.6891 28.3315 22.6891 28.1875C22.6891 28.0435 22.7343 27.9031 22.8184 27.7861C22.9025 27.6692 23.0212 27.5816 23.1577 27.5358L24.2422 27.1737C24.6519 27.0362 24.9746 26.7153 25.1112 26.3047L25.4732 25.2203C25.5188 25.0834 25.6063 24.9644 25.7232 24.88C25.8402 24.7956 25.9808 24.7501 26.125 24.75Z" fill="white"/>
</svg>
