<svg width="67" height="66" viewBox="0 0 67 66" fill="none" xmlns="http://www.w3.org/2000/svg">
<g opacity="0.6">
<path d="M10.1033 8.49942V1.137C10.1034 0.949185 10.1479 0.764324 10.2329 0.598913C10.3178 0.433501 10.4405 0.292683 10.59 0.18902C10.7395 0.0853575 10.9111 0.0220739 11.0897 0.00481486C11.2682 -0.0124442 11.448 0.0168581 11.6131 0.0901077C33.9998 9.92183 33.9998 15.3611 33.9998 15.3611V23.8956L10.1033 8.49942Z" fill="#E4C05C"/>
<path d="M57.8966 8.49942V1.137C57.8964 0.949185 57.8519 0.764324 57.767 0.598913C57.682 0.433501 57.5594 0.292683 57.4099 0.18902C57.2604 0.0853575 57.0887 0.0220739 56.9102 0.00481486C56.7316 -0.0124442 56.5518 0.0168581 56.3867 0.0901077C34 9.92183 34 15.3611 34 15.3611V23.8956L57.8966 8.49942Z" fill="#B19046"/>
<path d="M60.6664 7.04287L38.9422 18.4222C38.7621 18.5155 38.6107 18.6599 38.5051 18.8389C38.3994 19.018 38.3439 19.2245 38.3448 19.4349V19.3439C38.3448 19.0421 38.2304 18.7527 38.0267 18.5393C37.823 18.3259 37.5467 18.206 37.2586 18.206H30.7414C30.4533 18.206 30.177 18.3259 29.9733 18.5393C29.7696 18.7527 29.6552 19.0421 29.6552 19.3439V19.4349C29.6561 19.2245 29.6005 19.018 29.4949 18.8389C29.3893 18.6599 29.2378 18.5155 29.0578 18.4222L7.33361 7.04287C7.16826 6.95558 6.98435 6.91402 6.79936 6.92214C6.61436 6.93026 6.43441 6.98778 6.27661 7.08926C6.1188 7.19073 5.98838 7.33278 5.89772 7.50191C5.80706 7.67105 5.75918 7.86165 5.75861 8.05563V53.3111C5.7563 53.5219 5.81124 53.729 5.91702 53.9084C6.02279 54.0877 6.17505 54.2318 6.35603 54.3239L28.0802 65.7032C28.2455 65.7905 28.4294 65.8321 28.6144 65.8239C28.7994 65.8158 28.9794 65.7583 29.1372 65.6568C29.295 65.5554 29.4254 65.4133 29.5161 65.2442C29.6067 65.075 29.6546 64.8844 29.6552 64.6905V64.8611C29.6552 65.1629 29.7696 65.4524 29.9733 65.6658C30.177 65.8792 30.4533 65.9991 30.7414 65.9991H37.2586C37.5467 65.9991 37.823 65.8792 38.0267 65.6658C38.2304 65.4524 38.3448 65.1629 38.3448 64.8611V64.6905C38.3454 64.8844 38.3933 65.075 38.4839 65.2442C38.5746 65.4133 38.705 65.5554 38.8628 65.6568C39.0206 65.7583 39.2006 65.8158 39.3856 65.8239C39.5706 65.8321 39.7545 65.7905 39.9198 65.7032L61.644 54.3239C61.8249 54.2318 61.9772 54.0877 62.083 53.9084C62.1887 53.729 62.2437 53.5219 62.2414 53.3111V8.05563C62.2408 7.86165 62.1929 7.67105 62.1023 7.50191C62.0116 7.33278 61.8812 7.19073 61.7234 7.08926C61.5656 6.98778 61.3856 6.93026 61.2006 6.92214C61.0156 6.91402 60.8317 6.95558 60.6664 7.04287Z" fill="#0095DC"/>
<path d="M37.2587 18.2059H30.7415C30.1416 18.2059 29.6553 18.7154 29.6553 19.3439V64.8611C29.6553 65.4896 30.1416 65.999 30.7415 65.999H37.2587C37.8586 65.999 38.3449 65.4896 38.3449 64.8611V19.3439C38.3449 18.7154 37.8586 18.2059 37.2587 18.2059Z" fill="#00B0EB"/>
<path d="M4.67241 21.6199H9.56034C10.2805 21.6199 10.9712 21.9196 11.4805 22.4531C11.9898 22.9866 12.2759 23.7102 12.2759 24.4647C12.2759 25.2192 11.9898 25.9428 11.4805 26.4763C10.9712 27.0098 10.2805 27.3095 9.56034 27.3095H4.67241C4.09625 27.3095 3.54369 27.0697 3.13629 26.6429C2.72888 26.2161 2.5 25.6373 2.5 25.0337V23.8957C2.5 23.2921 2.72888 22.7133 3.13629 22.2865C3.54369 21.8597 4.09625 21.6199 4.67241 21.6199ZM4.67241 32.9992H9.56034C10.2805 32.9992 10.9712 33.2989 11.4805 33.8324C11.9898 34.3659 12.2759 35.0895 12.2759 35.844C12.2759 36.5985 11.9898 37.3221 11.4805 37.8556C10.9712 38.3891 10.2805 38.6888 9.56034 38.6888H4.67241C4.09625 38.6888 3.54369 38.4491 3.13629 38.0223C2.72888 37.5954 2.5 37.0166 2.5 36.413V35.275C2.5 34.6714 2.72888 34.0926 3.13629 33.6658C3.54369 33.239 4.09625 32.9992 4.67241 32.9992Z" fill="#FDD7AD"/>
<path d="M4.67241 38.6888H8.47414C9.19434 38.6888 9.88504 38.9885 10.3943 39.522C10.9036 40.0555 11.1897 40.7791 11.1897 41.5336C11.1897 42.2881 10.9036 43.0117 10.3943 43.5452C9.88504 44.0787 9.19434 44.3784 8.47414 44.3784H4.67241C4.09625 44.3784 3.54369 44.1386 3.13629 43.7118C2.72888 43.285 2.5 42.7061 2.5 42.1026V40.9646C2.5 40.361 2.72888 39.7821 3.13629 39.3553C3.54369 38.9285 4.09625 38.6888 4.67241 38.6888ZM4.67241 27.3094H11.7328C12.453 27.3094 13.1437 27.6092 13.6529 28.1427C14.1622 28.6762 14.4483 29.3998 14.4483 30.1543C14.4483 30.9088 14.1622 31.6324 13.6529 32.1659C13.1437 32.6994 12.453 32.9991 11.7328 32.9991H4.67241C4.09625 32.9991 3.54369 32.7593 3.13629 32.3325C2.72888 31.9057 2.5 31.3268 2.5 30.7232V29.5853C2.5 28.9817 2.72888 28.4028 3.13629 27.976C3.54369 27.5492 4.09625 27.3094 4.67241 27.3094Z" fill="#F9C795"/>
<path d="M63.3276 27.3095H58.4396C57.7194 27.3095 57.0287 27.0098 56.5195 26.4763C56.0102 25.9428 55.7241 25.2192 55.7241 24.4647C55.7241 23.7102 56.0102 22.9866 56.5195 22.4531C57.0287 21.9196 57.7194 21.6199 58.4396 21.6199H63.3276C63.9037 21.6199 64.4563 21.8597 64.8637 22.2865C65.2711 22.7133 65.5 23.2921 65.5 23.8957V25.0337C65.5 25.6373 65.2711 26.2161 64.8637 26.6429C64.4563 27.0697 63.9037 27.3095 63.3276 27.3095ZM63.3276 38.6888H58.4396C57.7194 38.6888 57.0287 38.3891 56.5195 37.8556C56.0102 37.3221 55.7241 36.5985 55.7241 35.844C55.7241 35.0895 56.0102 34.3659 56.5195 33.8324C57.0287 33.2989 57.7194 32.9992 58.4396 32.9992H63.3276C63.9037 32.9992 64.4563 33.239 64.8637 33.6658C65.2711 34.0926 65.5 34.6714 65.5 35.275V36.413C65.5 37.0166 65.2711 37.5954 64.8637 38.0223C64.4563 38.4491 63.9037 38.6888 63.3276 38.6888Z" fill="#FDD7AD"/>
<path d="M63.3276 44.3784H59.5259C58.8057 44.3784 58.115 44.0787 57.6057 43.5452C57.0965 43.0117 56.8104 42.2881 56.8104 41.5336C56.8104 40.7791 57.0965 40.0555 57.6057 39.522C58.115 38.9885 58.8057 38.6888 59.5259 38.6888H63.3276C63.9038 38.6888 64.4563 38.9285 64.8638 39.3553C65.2712 39.7821 65.5 40.361 65.5 40.9646V42.1026C65.5 42.7061 65.2712 43.285 64.8638 43.7118C64.4563 44.1386 63.9038 44.3784 63.3276 44.3784ZM63.3276 32.9991H56.2673C55.5471 32.9991 54.8564 32.6994 54.3471 32.1659C53.8379 31.6324 53.5518 30.9088 53.5518 30.1543C53.5518 29.3998 53.8379 28.6762 54.3471 28.1427C54.8564 27.6092 55.5471 27.3094 56.2673 27.3094H63.3276C63.9038 27.3094 64.4563 27.5492 64.8638 27.976C65.2712 28.4028 65.5 28.9817 65.5 29.5853V30.7232C65.5 31.3268 65.2712 31.9057 64.8638 32.3325C64.4563 32.7593 63.9038 32.9991 63.3276 32.9991Z" fill="#F9C795"/>
</g>
</svg>
