<svg width="67" height="66" viewBox="0 0 67 66" fill="none" xmlns="http://www.w3.org/2000/svg">
<g opacity="0.6">
<path d="M5.1293 5.75301C6.09559 4.78673 8.17203 4.84733 10.6837 6.60965C19.1372 12.5411 37.6568 26.8284 46.6265 37.7564C47.968 39.3908 47.798 40.8786 48.6467 42.3235L47.3881 47.7142L42.3407 49.2889C31.2346 42.7656 12.8044 21.0251 5.98605 11.3074C4.22362 8.79564 4.16313 6.71919 5.1293 5.75301Z" fill="#01C0FA"/>
<path d="M7.93885 9.35443C6.77771 7.69939 6.35563 6.23365 6.47899 5.14966C5.91791 5.21355 5.45889 5.42335 5.12936 5.75299C4.16307 6.71928 4.22367 8.79573 5.98599 11.3074C11.9154 19.7581 26.195 38.2678 37.1216 47.241C38.7599 48.5864 43.724 48.6152 43.724 48.6152C32.618 42.0918 14.7574 19.0721 7.93885 9.35443Z" fill="#0290CF"/>
<path d="M46.6067 37.7344C47.9559 39.3765 49.0921 40.9437 49.9445 42.3949L41.7711 50.5682C40.32 49.7159 38.7527 48.5797 37.1106 47.2305L46.6067 37.7344Z" fill="#E8EDF2"/>
<path d="M37.1106 47.2304C38.5371 48.4024 40.1661 49.6254 41.7711 50.5682L43.7241 48.6152C42.2729 47.7629 40.7057 46.6266 39.0636 45.2775L37.1106 47.2304Z" fill="#C5D3DD"/>
<path d="M41.771 50.5681L49.9444 42.3948C54.2879 42.1141 59.7885 45.0215 59.3835 51.0655C59.2439 53.1485 59.6151 55.9048 62.0591 57.4129C62.6744 57.7926 62.6326 58.7018 61.9715 58.9948C48.0439 65.1652 41.771 54.4693 41.771 50.5681Z" fill="#596C76"/>
<path d="M43.724 48.6152L41.771 50.5682C41.771 54.4695 48.0438 65.1654 61.9715 58.9949C62.5059 58.7581 62.6352 58.119 62.3404 57.682C49.5212 62.3903 43.724 52.3652 43.724 48.6152Z" fill="#465A61"/>
<path d="M60.1784 6.32177C63.2742 9.41764 63.2742 14.437 60.1784 17.5329L57.8241 19.8871L46.613 8.67599L48.9672 6.32177C52.0631 3.22591 57.0825 3.22591 60.1784 6.32177Z" fill="#FE7AB6"/>
<path d="M60.1781 6.32173C59.7834 5.92714 59.3482 5.5752 58.8798 5.27173C60.872 8.34358 60.5228 12.4915 57.8298 15.1845L55.4756 17.5387L57.824 19.8872L60.1782 17.5329C63.274 14.437 63.274 9.4176 60.1781 6.32173Z" fill="#FE3D97"/>
<path d="M42.955 12.3337L9.40487 45.8839L4.62067 59.3108C4.05177 60.9073 5.59251 62.448 7.18909 61.8792L20.616 57.095L54.166 23.545L42.955 12.3337Z" fill="#FFDFCF"/>
<path d="M51.8178 21.1964L18.2677 54.7465L4.84072 59.5307C4.73922 59.5668 4.63795 59.5943 4.53746 59.6139C4.24814 61.0945 5.69407 62.4118 7.18915 61.8791L20.616 57.0949L54.1661 23.5448L51.8178 21.1964Z" fill="#FFCEBF"/>
<path d="M9.40503 45.8838C13.9547 45.0711 15.8233 46.9396 15.0105 51.4893C19.5602 50.6766 21.4288 52.5451 20.6161 57.0949L54.1662 23.5448L51.769 15.8422L42.9551 12.3337L9.40503 45.8838Z" fill="#FE9738"/>
<path d="M20.6161 57.0949L54.1661 23.5448L51.8177 21.1964L20.2239 52.7903C20.8246 53.7553 20.9566 55.1888 20.6161 57.0949Z" fill="#FE7701"/>
<path d="M6.2859 54.6372L4.62067 59.3107C4.05177 60.9072 5.59251 62.4481 7.18909 61.8792L11.8626 60.2139L6.2859 54.6372Z" fill="#596C76"/>
<path d="M9.51438 57.8656C4.54348 59.628 4.81366 59.5602 4.53759 59.6141C4.24941 61.0993 5.69974 62.4101 7.18928 61.8793L11.8628 60.214L9.51438 57.8656Z" fill="#465A61"/>
<path d="M42.9552 12.3337L9.40503 45.8839C13.9547 45.0712 15.8233 46.9397 15.0105 51.4894L48.5607 17.9392L42.9552 12.3337Z" fill="#FECA9C"/>
<path d="M59.5765 18.2252L48.2748 6.92362C46.7933 5.44213 44.3914 5.44213 42.9099 6.92362C41.4285 8.40511 41.4285 10.807 42.9099 12.2885L54.2116 23.5901C55.6931 25.0716 58.095 25.0716 59.5765 23.5901C61.0579 22.1086 61.0579 19.7067 59.5765 18.2252Z" fill="#B3DAFE"/>
<path d="M59.5764 18.2253L57.2279 15.8768C58.7094 17.3583 58.7094 19.7602 57.2279 21.2417C55.7464 22.7232 53.3445 22.7232 51.863 21.2417L54.2115 23.5901C55.693 25.0716 58.0949 25.0716 59.5764 23.5901C61.0578 22.1087 61.0578 19.7068 59.5764 18.2253Z" fill="#8AC9FE"/>
</g>
</svg>
