<svg width="67" height="66" viewBox="0 0 67 66" fill="none" xmlns="http://www.w3.org/2000/svg">
<g opacity="0.5">
<path d="M18.6165 24.2793H47.8877C47.8877 34.0369 61.1816 41.9948 53.7562 54.3922H12.748C5.32263 41.9948 18.6165 34.0369 18.6165 24.2793Z" fill="#0097DE"/>
<path d="M58.8425 61.1133L56.7732 52.2189C56.4572 50.8608 55.7903 49.6094 54.8392 48.5897C53.8881 47.57 52.6861 46.8178 51.3532 46.4082L39.5616 42.7847H26.8866L15.0951 46.4082C13.7622 46.8178 12.5601 47.57 11.609 48.5897C10.6579 49.6094 9.99106 50.8608 9.67509 52.2189L7.60575 61.1133C7.02413 63.6115 8.92073 66 11.4857 66H30.1976L33.2239 64.8825L36.2503 66H54.9622C57.5271 66 59.4237 63.6115 58.8425 61.1133Z" fill="#7C6A7A"/>
<path d="M26.8863 42.7847L15.0947 46.4082C13.7619 46.8178 12.5598 47.57 11.6087 48.5897C10.6576 49.6094 9.99073 50.8608 9.67476 52.2189L7.60542 61.1133C7.02406 63.6115 8.92065 66 11.4856 66H30.1975L33.2239 64.8825L36.2502 66H47.7082C35.6757 66 26.8863 54.6515 26.8863 42.7847Z" fill="#6D5C6C"/>
<path d="M27.4775 53.2251C27.9245 57.047 28.5573 60.1267 29.1341 62.396C29.547 64.0203 29.9313 65.2304 30.1976 66.0001H36.2504C36.5167 65.2304 36.901 64.0203 37.3139 62.396L37.3144 62.3937L37.3146 62.3927C37.8912 60.1238 38.5238 57.0451 38.9704 53.2251H27.4775Z" fill="#F2F0F1"/>
<path d="M29.2012 53.2251H27.4773C28.244 59.7835 29.559 64.1551 30.1975 66.0001H36.2503C36.4948 65.2934 36.8387 64.2154 37.2129 62.7866C33.7601 60.4873 30.9977 57.1173 29.2012 53.2251Z" fill="#E8E6E8"/>
<path d="M27.4774 53.2252C28.8656 53.8514 30.7305 54.3042 33.2239 54.3042C35.7173 54.3042 37.5822 53.8515 38.9704 53.2252C39.3243 50.1994 39.5614 46.7087 39.5614 42.7847H26.8865C26.8863 46.7087 27.1237 50.1994 27.4774 53.2252Z" fill="#F5D6A7"/>
<path d="M26.8862 42.7847C26.8862 46.7084 27.1234 50.1994 27.4771 53.2252C28.0704 53.4928 28.7509 53.7285 29.5302 53.911C27.8345 50.5123 26.8862 46.6773 26.8862 42.7847Z" fill="#F6D094"/>
<path d="M11.4858 65.9999L13.7704 58.6882C13.9851 58.0013 14.9838 58.0987 15.0638 58.8139C15.3421 61.3014 16.2411 64.2502 18.7397 65.9999H11.4858Z" fill="#5B4A5B"/>
<path d="M54.9623 65.9999L52.6777 58.6882C52.4631 58.0013 51.4643 58.0987 51.3844 58.8139C51.1061 61.3014 50.2071 64.2502 47.7085 65.9999H54.9623Z" fill="#6D5C6C"/>
<path d="M40.9672 33.3706H25.481C27.2934 37.2495 26.8865 42.7846 26.8865 42.7846C26.8865 42.7846 27.8642 45.9435 33.2241 45.9435C38.584 45.9435 39.5616 42.7846 39.5616 42.7846C39.5616 42.7846 39.1547 37.2495 40.9672 33.3706Z" fill="#F5D6A7"/>
<path d="M48.9401 13.1381C46.943 6.64009 41.8141 0 36.2025 0C34.2711 0 33.224 1.89454 33.224 1.89454C33.224 1.89454 32.1769 0 30.2455 0C24.6338 0 19.5047 6.64061 17.5076 13.1389C16.9415 14.8008 16.6319 16.5812 16.6253 18.4331C16.6252 18.4533 16.6245 18.4739 16.6245 18.494C16.6245 21.9499 19.426 24.7513 22.8817 24.7513H43.5663C47.0221 24.7513 49.8235 21.9498 49.8235 18.494C49.8237 16.6199 49.5127 14.8185 48.9401 13.1381Z" fill="#01B1EC"/>
<path d="M26.1262 14.6798C25.4456 10.9133 26.5419 1.89454 33.224 1.89454C33.224 1.89454 32.1769 0 30.2455 0C24.6338 0 19.5047 6.64061 17.5076 13.1389C16.9415 14.8008 16.6319 16.5812 16.6253 18.4331C16.6252 18.4533 16.6245 18.4739 16.6245 18.4942C16.6245 21.95 19.426 24.7514 22.8817 24.7514H26.1262V14.6798Z" fill="#019AE0"/>
<path d="M22.5655 29.0882C24.6909 28.5195 25.8376 25.9046 25.1267 23.2477C24.4158 20.5909 22.1165 18.8981 19.991 19.4668C17.8656 20.0355 16.7189 22.6504 17.4298 25.3073C18.1407 27.9641 20.44 29.6569 22.5655 29.0882Z" fill="#F5D6A7"/>
<path d="M49.0337 25.3121C49.746 22.6556 48.6006 20.0402 46.4755 19.4704C44.3503 18.9005 42.0501 20.5921 41.3378 23.2486C40.6255 25.9051 41.7709 28.5205 43.896 29.0904C46.0212 29.6602 48.3214 27.9686 49.0337 25.3121Z" fill="#F3DBB9"/>
<path d="M21.7205 26.0275C21.7097 25.8921 21.5621 24.6936 19.7479 24.2889C19.4976 24.2331 19.2797 24.0802 19.1422 23.8637C19.0047 23.6473 18.9588 23.3851 19.0146 23.1348C19.0705 22.8845 19.2234 22.6667 19.4398 22.5292C19.6563 22.3917 19.9185 22.3458 20.1687 22.4016C23.5015 23.145 23.6469 25.8184 23.6515 25.9318L21.7195 26.0096L21.7205 26.0275Z" fill="#F5C67F"/>
<path d="M44.7274 26.0277L44.7284 26.0097L42.7964 25.932C42.801 25.8186 42.9464 23.1452 46.2792 22.4018C46.528 22.3498 46.7873 22.3979 47.0009 22.5356C47.2145 22.6734 47.3653 22.8897 47.4206 23.1378C47.476 23.3859 47.4314 23.6458 47.2965 23.8613C47.1617 24.0767 46.9474 24.2304 46.7001 24.2891C44.8858 24.6936 44.7382 25.8923 44.7274 26.0277Z" fill="#F6D094"/>
<path d="M43.3294 20.1742C43.3046 20.1316 42.2731 17.033 40.3217 14.6798L39.6794 17.3261C39.5741 17.7601 39.3259 18.1461 38.9749 18.4221C38.6238 18.6981 38.1902 18.8482 37.7436 18.8481H28.7041C28.2575 18.8481 27.8239 18.698 27.4728 18.422C27.1218 18.146 26.8736 17.76 26.7683 17.326L26.1259 14.6797C24.1737 17.034 23.142 20.1331 23.1183 20.1742C22.7824 21.467 22.6001 22.8464 22.6001 24.2793C22.6001 31.6135 27.3565 37.559 33.2238 37.559C39.0911 37.559 43.8475 31.6135 43.8475 24.2793C43.8475 22.8465 43.6652 21.4671 43.3294 20.1742Z" fill="#F7EAD3"/>
<path d="M28.5759 24.2795C28.5759 22.3441 28.9086 20.5065 29.5041 18.8484H28.7041C28.2575 18.8484 27.8239 18.6983 27.4728 18.4222C27.1218 18.1462 26.8736 17.7602 26.7683 17.3262L26.1259 14.6799C24.1737 17.0343 23.142 20.1333 23.1183 20.1744C22.7824 21.4672 22.6001 22.8467 22.6001 24.2795C22.6001 31.6136 27.3565 37.5591 33.2238 37.5591C34.2613 37.5591 35.2638 37.3723 36.2117 37.0258C31.7991 35.4123 28.5759 30.3168 28.5759 24.2795Z" fill="#F3DBB9"/>
<path d="M33.224 30.2898C32.6714 30.2897 32.1253 30.1711 31.6225 29.9421C31.1196 29.7131 30.6716 29.3789 30.3088 28.9622C30.1403 28.7689 30.0555 28.5166 30.0731 28.2608C30.0906 28.0049 30.2091 27.7666 30.4024 27.5981C30.5957 27.4296 30.848 27.3448 31.1038 27.3624C31.3596 27.3799 31.598 27.4984 31.7665 27.6917C32.1345 28.114 32.6657 28.3561 33.224 28.3561C33.7823 28.3561 34.3135 28.114 34.6815 27.6917C34.765 27.596 34.8664 27.5176 34.9801 27.4611C35.0938 27.4046 35.2175 27.3711 35.3442 27.3624C35.4709 27.3537 35.598 27.37 35.7184 27.4105C35.8387 27.4509 35.9499 27.5147 36.0456 27.5981C36.1413 27.6815 36.2197 27.783 36.2762 27.8967C36.3327 28.0104 36.3663 28.1341 36.3749 28.2608C36.3836 28.3874 36.3673 28.5146 36.3268 28.6349C36.2864 28.7553 36.2226 28.8665 36.1392 28.9622C35.7764 29.3789 35.3284 29.7131 34.8256 29.9421C34.3227 30.1711 33.7766 30.2897 33.224 30.2898Z" fill="#F5C67F"/>
<path d="M37.6627 24.7579C37.4063 24.7579 37.1604 24.6561 36.979 24.4748C36.7977 24.2934 36.6959 24.0475 36.6959 23.7911V22.4631C36.6959 22.2067 36.7977 21.9608 36.979 21.7795C37.1604 21.5982 37.4063 21.4963 37.6627 21.4963C37.9191 21.4963 38.165 21.5982 38.3463 21.7795C38.5276 21.9608 38.6295 22.2067 38.6295 22.4631V23.7911C38.6295 24.0475 38.5276 24.2934 38.3463 24.4748C38.165 24.6561 37.9191 24.7579 37.6627 24.7579ZM28.7852 24.7579C28.5287 24.7579 28.2828 24.6561 28.1015 24.4748C27.9202 24.2934 27.8184 24.0475 27.8184 23.7911V22.4631C27.8184 22.2067 27.9202 21.9608 28.1015 21.7795C28.2828 21.5982 28.5287 21.4963 28.7852 21.4963C29.0416 21.4963 29.2875 21.5982 29.4688 21.7795C29.6501 21.9608 29.752 22.2067 29.752 22.4631V23.7911C29.752 24.0475 29.6501 24.2934 29.4688 24.4748C29.2875 24.6561 29.0416 24.7579 28.7852 24.7579Z" fill="#6D5C6C"/>
</g>
</svg>
