<svg width="30" height="32" viewBox="0 0 30 32" fill="none" xmlns="http://www.w3.org/2000/svg">
<path fill-rule="evenodd" clip-rule="evenodd" d="M13.4879 9.66135e-08C11.9857 9.66135e-08 10.7046 1.08615 10.4572 2.56711L10.1656 4.3233C10.1328 4.51988 9.97718 4.74924 9.67902 4.8934C9.11768 5.16324 8.57769 5.4754 8.06372 5.82719C7.79178 6.01559 7.51655 6.03361 7.32652 5.96317L5.66044 5.33736C4.97932 5.08219 4.22976 5.07698 3.54517 5.32268C2.86059 5.56838 2.2854 6.04903 1.92199 6.67907L0.411537 9.29533C0.0479957 9.925 -0.0804004 10.6632 0.0491885 11.3787C0.178777 12.0941 0.557949 12.7404 1.11925 13.2025L2.49537 14.3362C2.651 14.464 2.77387 14.7113 2.74766 15.0406C2.70097 15.6617 2.70097 16.2855 2.74766 16.9066C2.77223 17.2342 2.651 17.4832 2.49701 17.611L1.11925 18.7447C0.557949 19.2068 0.178777 19.8531 0.0491885 20.5685C-0.0804004 21.284 0.0479957 22.0222 0.411537 22.6518L1.92199 25.2681C2.28565 25.8979 2.86095 26.3782 3.54552 26.6236C4.23009 26.8689 4.97951 26.8635 5.66044 26.6082L7.32979 25.9824C7.51819 25.9119 7.79341 25.9316 8.067 26.1167C8.57813 26.4673 9.11711 26.7802 9.68066 27.0505C9.97882 27.1947 10.1344 27.424 10.1672 27.6239L10.4588 29.3784C10.7062 30.8594 11.9873 31.9455 13.4895 31.9455H16.5105C18.0111 31.9455 19.2938 30.8594 19.5412 29.3784L19.8328 27.6222C19.8656 27.4257 20.0195 27.1963 20.3193 27.0505C20.8829 26.7802 21.4219 26.4673 21.933 26.1167C22.2066 25.9299 22.4818 25.9119 22.6702 25.9824L24.3412 26.6082C25.0219 26.8625 25.7707 26.8672 26.4546 26.6216C27.1384 26.3759 27.7131 25.8958 28.0764 25.2665L29.5885 22.6502C29.952 22.0205 30.0804 21.2823 29.9508 20.5669C29.8212 19.8514 29.4421 19.2052 28.8807 18.743L27.5046 17.6094C27.349 17.4816 27.2261 17.2342 27.2523 16.9049C27.2989 16.2838 27.2989 15.6601 27.2523 15.039C27.2261 14.7113 27.349 14.4623 27.503 14.3345L28.8791 13.2009C30.039 12.2474 30.3388 10.5961 29.5885 9.29369L28.078 6.67744C27.7143 6.04768 27.139 5.56737 26.4545 5.32199C25.7699 5.0766 25.0205 5.08205 24.3396 5.33736L22.6686 5.96317C22.4818 6.03361 22.2066 6.01395 21.933 5.82719C21.4196 5.47546 20.8801 5.16329 20.3193 4.8934C20.0195 4.75087 19.8656 4.52152 19.8328 4.3233L19.5395 2.56711C19.4201 1.84967 19.0499 1.1979 18.4949 0.727812C17.9399 0.257724 17.2361 -0.000182237 16.5088 9.66135e-08H13.4895H13.4879ZM14.9984 22.1161C16.6277 22.1161 18.1903 21.4689 19.3424 20.3168C20.4945 19.1647 21.1417 17.6021 21.1417 15.9728C21.1417 14.3434 20.4945 12.7809 19.3424 11.6287C18.1903 10.4766 16.6277 9.8294 14.9984 9.8294C13.369 9.8294 11.8064 10.4766 10.6543 11.6287C9.50224 12.7809 8.85499 14.3434 8.85499 15.9728C8.85499 17.6021 9.50224 19.1647 10.6543 20.3168C11.8064 21.4689 13.369 22.1161 14.9984 22.1161Z" fill="#181818" fill-opacity="0.6"/>
</svg>
