<svg width="52" height="66" viewBox="0 0 52 66" fill="none" xmlns="http://www.w3.org/2000/svg">
<path d="M11.6165 24.2793H40.8877C40.8877 34.0369 54.1816 41.9948 46.7562 54.3922H5.74802C-1.67737 41.9948 11.6165 34.0369 11.6165 24.2793Z" fill="#0097DE"/>
<path d="M51.8425 61.1133L49.7732 52.2189C49.4572 50.8608 48.7903 49.6094 47.8392 48.5897C46.8881 47.57 45.6861 46.8178 44.3532 46.4082L32.5616 42.7847H19.8866L8.09508 46.4082C6.76219 46.8178 5.56014 47.57 4.60903 48.5897C3.65792 49.6094 2.99106 50.8608 2.67509 52.2189L0.605753 61.1133C0.0241277 63.6115 1.92073 66 4.4857 66H23.1976L26.2239 64.8825L29.2503 66H47.9622C50.5271 66 52.4237 63.6115 51.8425 61.1133Z" fill="#7C6A7A"/>
<path d="M19.8863 42.7847L8.09475 46.4082C6.76186 46.8178 5.55981 47.57 4.6087 48.5897C3.65759 49.6094 2.99073 50.8608 2.67476 52.2189L0.605425 61.1133C0.0240575 63.6115 1.92065 66 4.48563 66H23.1975L26.2239 64.8825L29.2502 66H40.7082C28.6757 66 19.8863 54.6515 19.8863 42.7847Z" fill="#6D5C6C"/>
<path d="M20.4775 53.225C20.9245 57.0469 21.5573 60.1266 22.1341 62.3959C22.547 64.0202 22.9313 65.2303 23.1976 66H29.2504C29.5167 65.2303 29.901 64.0202 30.3139 62.3959L30.3144 62.3936L30.3146 62.3925C30.8912 60.1237 31.5238 57.045 31.9704 53.225H20.4775Z" fill="#F2F0F1"/>
<path d="M22.2012 53.225H20.4773C21.244 59.7833 22.559 64.1549 23.1975 66H29.2503C29.4948 65.2933 29.8387 64.2153 30.2129 62.7865C26.7601 60.4872 23.9977 57.1172 22.2012 53.225Z" fill="#E8E6E8"/>
<path d="M20.4774 53.2252C21.8656 53.8514 23.7305 54.3042 26.2239 54.3042C28.7173 54.3042 30.5822 53.8515 31.9704 53.2252C32.3243 50.1994 32.5614 46.7087 32.5614 42.7847H19.8865C19.8863 46.7087 20.1237 50.1994 20.4774 53.2252Z" fill="#F5D6A7"/>
<path d="M19.8862 42.7847C19.8862 46.7084 20.1234 50.1994 20.4771 53.2252C21.0704 53.4928 21.7509 53.7285 22.5302 53.911C20.8345 50.5123 19.8862 46.6773 19.8862 42.7847Z" fill="#F6D094"/>
<path d="M4.48584 66L6.77045 58.6883C6.98507 58.0014 7.98384 58.0988 8.06376 58.814C8.34207 61.3015 9.24106 64.2504 11.7397 66H4.48584Z" fill="#5B4A5B"/>
<path d="M47.9623 66L45.6777 58.6883C45.4631 58.0014 44.4643 58.0988 44.3844 58.814C44.1061 61.3015 43.2071 64.2504 40.7085 66H47.9623Z" fill="#6D5C6C"/>
<path d="M33.9672 33.3706H18.481C20.2934 37.2495 19.8865 42.7846 19.8865 42.7846C19.8865 42.7846 20.8642 45.9435 26.2241 45.9435C31.584 45.9435 32.5616 42.7846 32.5616 42.7846C32.5616 42.7846 32.1547 37.2495 33.9672 33.3706Z" fill="#F5D6A7"/>
<path d="M41.9401 13.1381C39.943 6.64009 34.8141 0 29.2025 0C27.2711 0 26.224 1.89454 26.224 1.89454C26.224 1.89454 25.1769 0 23.2455 0C17.6338 0 12.5047 6.64061 10.5076 13.1389C9.94149 14.8008 9.63186 16.5812 9.62529 18.4331C9.62516 18.4533 9.62451 18.4739 9.62451 18.494C9.62451 21.9499 12.426 24.7513 15.8817 24.7513H36.5663C40.0221 24.7513 42.8235 21.9498 42.8235 18.494C42.8237 16.6199 42.5127 14.8185 41.9401 13.1381Z" fill="#01B1EC"/>
<path d="M19.1262 14.6798C18.4456 10.9133 19.5419 1.89454 26.224 1.89454C26.224 1.89454 25.1769 0 23.2455 0C17.6338 0 12.5047 6.64061 10.5076 13.1389C9.94149 14.8008 9.63186 16.5812 9.62529 18.4331C9.62516 18.4533 9.62451 18.4739 9.62451 18.4942C9.62451 21.95 12.426 24.7514 15.8817 24.7514H19.1262V14.6798Z" fill="#019AE0"/>
<path d="M15.5655 29.0882C17.6909 28.5195 18.8376 25.9046 18.1267 23.2477C17.4158 20.5909 15.1165 18.8981 12.991 19.4668C10.8656 20.0355 9.71888 22.6504 10.4298 25.3073C11.1407 27.9641 13.44 29.6569 15.5655 29.0882Z" fill="#F5D6A7"/>
<path d="M42.0337 25.3123C42.746 22.6558 41.6006 20.0403 39.4755 19.4705C37.3503 18.9007 35.0501 20.5922 34.3378 23.2487C33.6255 25.9052 34.7709 28.5207 36.896 29.0905C39.0212 29.6603 41.3214 27.9687 42.0337 25.3123Z" fill="#F3DBB9"/>
<path d="M14.7205 26.0276C14.7097 25.8922 14.5621 24.6937 12.7479 24.289C12.4976 24.2332 12.2797 24.0803 12.1422 23.8638C12.0047 23.6474 11.9588 23.3852 12.0146 23.1349C12.0705 22.8847 12.2234 22.6668 12.4398 22.5293C12.6563 22.3918 12.9185 22.3459 13.1687 22.4017C16.5015 23.1451 16.6469 25.8185 16.6515 25.932L14.7195 26.0097L14.7205 26.0276Z" fill="#F5C67F"/>
<path d="M37.7274 26.0275L37.7284 26.0096L35.7964 25.9319C35.801 25.8184 35.9464 23.1451 39.2792 22.4017C39.528 22.3497 39.7873 22.3978 40.0009 22.5355C40.2145 22.6733 40.3653 22.8896 40.4206 23.1377C40.476 23.3858 40.4314 23.6457 40.2965 23.8612C40.1617 24.0766 39.9474 24.2303 39.7001 24.289C37.8858 24.6935 37.7382 25.8922 37.7274 26.0275Z" fill="#F6D094"/>
<path d="M36.3294 20.1742C36.3046 20.1316 35.2731 17.033 33.3217 14.6798L32.6794 17.3261C32.5741 17.7601 32.3259 18.1461 31.9749 18.4221C31.6238 18.6981 31.1902 18.8482 30.7436 18.8481H21.7041C21.2575 18.8481 20.8239 18.698 20.4728 18.422C20.1218 18.146 19.8736 17.76 19.7683 17.326L19.1259 14.6797C17.1737 17.034 16.142 20.1331 16.1183 20.1742C15.7824 21.467 15.6001 22.8464 15.6001 24.2793C15.6001 31.6135 20.3565 37.559 26.2238 37.559C32.0911 37.559 36.8475 31.6135 36.8475 24.2793C36.8475 22.8465 36.6652 21.4671 36.3294 20.1742Z" fill="#F7EAD3"/>
<path d="M21.5759 24.2793C21.5759 22.3439 21.9086 20.5064 22.5041 18.8483H21.7041C21.2575 18.8482 20.8239 18.6982 20.4728 18.4221C20.1218 18.1461 19.8736 17.7601 19.7683 17.3261L19.1259 14.6798C17.1737 17.0342 16.142 20.1332 16.1183 20.1743C15.7824 21.4671 15.6001 22.8465 15.6001 24.2793C15.6001 31.6135 20.3565 37.559 26.2238 37.559C27.2613 37.559 28.2638 37.3722 29.2117 37.0257C24.7991 35.4122 21.5759 30.3167 21.5759 24.2793Z" fill="#F3DBB9"/>
<path d="M26.224 30.2897C25.6714 30.2895 25.1253 30.171 24.6225 29.9419C24.1196 29.7129 23.6716 29.3788 23.3088 28.9621C23.1403 28.7688 23.0555 28.5165 23.0731 28.2606C23.0906 28.0048 23.2091 27.7665 23.4024 27.598C23.5957 27.4295 23.848 27.3447 24.1038 27.3623C24.3596 27.3798 24.598 27.4983 24.7665 27.6916C25.1345 28.1139 25.6657 28.3559 26.224 28.3559C26.7823 28.3559 27.3135 28.1139 27.6815 27.6916C27.765 27.5959 27.8664 27.5175 27.9801 27.461C28.0938 27.4045 28.2175 27.3709 28.3442 27.3623C28.4709 27.3536 28.598 27.3699 28.7184 27.4104C28.8387 27.4508 28.9499 27.5146 29.0456 27.598C29.1413 27.6814 29.2197 27.7829 29.2762 27.8966C29.3327 28.0103 29.3663 28.134 29.3749 28.2606C29.3836 28.3873 29.3673 28.5144 29.3268 28.6348C29.2864 28.7551 29.2226 28.8664 29.1392 28.9621C28.7764 29.3788 28.3284 29.7129 27.8256 29.9419C27.3227 30.171 26.7766 30.2895 26.224 30.2897Z" fill="#F5C67F"/>
<path d="M30.6627 24.7579C30.4063 24.7579 30.1604 24.6561 29.979 24.4748C29.7977 24.2934 29.6959 24.0475 29.6959 23.7911V22.4631C29.6959 22.2067 29.7977 21.9608 29.979 21.7795C30.1604 21.5982 30.4063 21.4963 30.6627 21.4963C30.9191 21.4963 31.165 21.5982 31.3463 21.7795C31.5276 21.9608 31.6295 22.2067 31.6295 22.4631V23.7911C31.6295 24.0475 31.5276 24.2934 31.3463 24.4748C31.165 24.6561 30.9191 24.7579 30.6627 24.7579ZM21.7852 24.7579C21.5287 24.7579 21.2828 24.6561 21.1015 24.4748C20.9202 24.2934 20.8184 24.0475 20.8184 23.7911V22.4631C20.8184 22.2067 20.9202 21.9608 21.1015 21.7795C21.2828 21.5982 21.5287 21.4963 21.7852 21.4963C22.0416 21.4963 22.2875 21.5982 22.4688 21.7795C22.6501 21.9608 22.752 22.2067 22.752 22.4631V23.7911C22.752 24.0475 22.6501 24.2934 22.4688 24.4748C22.2875 24.6561 22.0416 24.7579 21.7852 24.7579Z" fill="#6D5C6C"/>
</svg>
