<svg width="59" height="58" viewBox="0 0 59 58" fill="none" xmlns="http://www.w3.org/2000/svg">
<path d="M1.1293 1.75314C2.09559 0.786848 4.17203 0.847453 6.68371 2.60977C15.1372 8.54118 33.6568 22.8285 42.6265 33.7566C43.968 35.3909 43.798 36.8787 44.6467 38.3236L43.3881 43.7143L38.3407 45.289C27.2346 38.7657 8.80444 17.0253 1.98605 7.30754C0.223618 4.79576 0.163125 2.71931 1.1293 1.75314Z" fill="#01C0FA"/>
<path d="M3.93885 5.35419C2.77771 3.69915 2.35563 2.2334 2.47899 1.14941C1.91791 1.2133 1.45889 1.4231 1.12936 1.75275C0.163069 2.71904 0.223674 4.79548 1.98599 7.30716C7.91536 15.7578 22.195 34.2675 33.1216 43.2408C34.7599 44.5862 39.724 44.615 39.724 44.615C28.618 38.0916 10.7574 15.0719 3.93885 5.35419Z" fill="#0290CF"/>
<path d="M42.6067 33.7344C43.9559 35.3765 45.0921 36.9437 45.9445 38.3949L37.7711 46.5682C36.32 45.7159 34.7527 44.5797 33.1106 43.2305L42.6067 33.7344Z" fill="#E8EDF2"/>
<path d="M33.1106 43.2303C34.5371 44.4023 36.1661 45.6253 37.7711 46.568L39.7241 44.6151C38.2729 43.7627 36.7057 42.6265 35.0636 41.2773L33.1106 43.2303Z" fill="#C5D3DD"/>
<path d="M37.771 46.5684L45.9444 38.395C50.2879 38.1143 55.7885 41.0218 55.3835 47.0658C55.2439 49.1488 55.6151 51.905 58.0591 53.4132C58.6744 53.7929 58.6326 54.7021 57.9715 54.995C44.0439 61.1654 37.771 50.4695 37.771 46.5684Z" fill="#596C76"/>
<path d="M39.724 44.6152L37.771 46.5682C37.771 50.4695 44.0438 61.1654 57.9715 54.9949C58.5059 54.7581 58.6352 54.119 58.3404 53.682C45.5212 58.3903 39.724 48.3652 39.724 44.6152Z" fill="#465A61"/>
<path d="M56.1784 2.3219C59.2742 5.41776 59.2742 10.4371 56.1784 13.533L53.8241 15.8872L42.613 4.67611L44.9672 2.3219C48.0631 -0.773966 53.0825 -0.773966 56.1784 2.3219Z" fill="#FE7AB6"/>
<path d="M56.1781 2.32198C55.7834 1.92738 55.3482 1.57544 54.8798 1.27197C56.872 4.34382 56.5228 8.49173 53.8298 11.1848L51.4756 13.539L53.824 15.8874L56.1782 13.5332C59.274 10.4372 59.274 5.41784 56.1781 2.32198Z" fill="#FE3D97"/>
<path d="M38.955 8.3335L5.40487 41.8837L0.620667 55.3105C0.0517684 56.907 1.59251 58.4478 3.18909 57.879L16.616 53.0948L50.166 19.5447L38.955 8.3335Z" fill="#FFDFCF"/>
<path d="M47.8178 17.1963L14.2677 50.7463L0.840719 55.5305C0.739219 55.5667 0.637945 55.5942 0.537465 55.6138C0.248145 57.0944 1.69407 58.4116 3.18915 57.879L16.616 53.0948L50.1661 19.5447L47.8178 17.1963Z" fill="#FFCEBF"/>
<path d="M5.40503 41.884C9.95474 41.0714 11.8233 42.9398 11.0105 47.4895C15.5602 46.6768 17.4288 48.5453 16.6161 53.0951L50.1662 19.5451L47.769 11.8424L38.9551 8.33398L5.40503 41.884Z" fill="#FE9738"/>
<path d="M16.6161 53.0948L50.1661 19.5447L47.8177 17.1963L16.2239 48.7902C16.8246 49.7551 16.9566 51.1887 16.6161 53.0948Z" fill="#FE7701"/>
<path d="M2.2859 50.6372L0.620667 55.3107C0.0517684 56.9072 1.59251 58.4481 3.18909 57.8792L7.86262 56.2139L2.2859 50.6372Z" fill="#596C76"/>
<path d="M5.51438 53.8657C0.543483 55.6282 0.813659 55.5603 0.537593 55.6142C0.249405 57.0994 1.69974 58.4102 3.18928 57.8794L7.86281 56.2142L5.51438 53.8657Z" fill="#465A61"/>
<path d="M38.9552 8.3335L5.40503 41.8837C9.95474 41.071 11.8233 42.9394 11.0105 47.4892L44.5607 13.939L38.9552 8.3335Z" fill="#FECA9C"/>
<path d="M55.5765 14.2252L44.2748 2.92362C42.7933 1.44213 40.3914 1.44213 38.9099 2.92362C37.4285 4.40511 37.4285 6.80701 38.9099 8.28851L50.2116 19.5901C51.6931 21.0716 54.095 21.0716 55.5765 19.5901C57.0579 18.1086 57.0579 15.7067 55.5765 14.2252Z" fill="#B3DAFE"/>
<path d="M55.5764 14.2254L53.2279 11.877C54.7094 13.3584 54.7094 15.7603 53.2279 17.2418C51.7464 18.7233 49.3445 18.7233 47.863 17.2418L50.2115 19.5903C51.693 21.0718 54.0949 21.0718 55.5764 19.5903C57.0578 18.1088 57.0578 15.7069 55.5764 14.2254Z" fill="#8AC9FE"/>
</svg>
