<svg width="67" height="66" viewBox="0 0 67 66" fill="none" xmlns="http://www.w3.org/2000/svg">
<path d="M10.02 8.49942V1.137C10.0202 0.949185 10.0647 0.764324 10.1496 0.598913C10.2345 0.433501 10.3572 0.292683 10.5067 0.18902C10.6562 0.0853575 10.8279 0.0220739 11.0064 0.00481486C11.1849 -0.0124442 11.3648 0.0168581 11.5298 0.0901077C33.9166 9.92183 33.9166 15.3611 33.9166 15.3611V23.8956L10.02 8.49942Z" fill="#E4C05C"/>
<path d="M57.8133 8.49942V1.137C57.8132 0.949185 57.7686 0.764324 57.6837 0.598913C57.5988 0.433501 57.4761 0.292683 57.3266 0.18902C57.1771 0.0853575 57.0054 0.0220739 56.8269 0.00481486C56.6484 -0.0124442 56.4686 0.0168581 56.3035 0.0901077C33.9167 9.92183 33.9167 15.3611 33.9167 15.3611V23.8956L57.8133 8.49942Z" fill="#B19046"/>
<path d="M60.5831 7.04287L38.859 18.4222C38.6789 18.5155 38.5274 18.6599 38.4218 18.8389C38.3162 19.018 38.2607 19.2245 38.2616 19.4349V19.3439C38.2616 19.0421 38.1471 18.7527 37.9434 18.5393C37.7397 18.3259 37.4634 18.206 37.1754 18.206H30.6581C30.37 18.206 30.0938 18.3259 29.8901 18.5393C29.6864 18.7527 29.5719 19.0421 29.5719 19.3439V19.4349C29.5728 19.2245 29.5173 19.018 29.4117 18.8389C29.3061 18.6599 29.1546 18.5155 28.9745 18.4222L7.25036 7.04287C7.08501 6.95558 6.9011 6.91402 6.7161 6.92214C6.53111 6.93026 6.35116 6.98778 6.19336 7.08926C6.03555 7.19073 5.90513 7.33278 5.81447 7.50191C5.72381 7.67105 5.67592 7.86165 5.67536 8.05563V53.3111C5.67305 53.5219 5.72799 53.729 5.83376 53.9084C5.93954 54.0877 6.09179 54.2318 6.27278 54.3239L27.9969 65.7032C28.1623 65.7905 28.3462 65.8321 28.5312 65.8239C28.7162 65.8158 28.8961 65.7583 29.0539 65.6568C29.2117 65.5554 29.3421 65.4133 29.4328 65.2442C29.5235 65.075 29.5714 64.8844 29.5719 64.6905V64.8611C29.5719 65.1629 29.6864 65.4524 29.8901 65.6658C30.0938 65.8792 30.37 65.9991 30.6581 65.9991H37.1754C37.4634 65.9991 37.7397 65.8792 37.9434 65.6658C38.1471 65.4524 38.2616 65.1629 38.2616 64.8611V64.6905C38.2621 64.8844 38.31 65.075 38.4007 65.2442C38.4913 65.4133 38.6218 65.5554 38.7796 65.6568C38.9374 65.7583 39.1173 65.8158 39.3023 65.8239C39.4873 65.8321 39.6712 65.7905 39.8366 65.7032L61.5607 54.3239C61.7417 54.2318 61.8939 54.0877 61.9997 53.9084C62.1055 53.729 62.1604 53.5219 62.1581 53.3111V8.05563C62.1576 7.86165 62.1097 7.67105 62.019 7.50191C61.9284 7.33278 61.7979 7.19073 61.6401 7.08926C61.4823 6.98778 61.3024 6.93026 61.1174 6.92214C60.9324 6.91402 60.7485 6.95558 60.5831 7.04287Z" fill="#0095DC"/>
<path d="M37.1755 18.2061H30.6582C30.0583 18.2061 29.572 18.7155 29.572 19.344V64.8612C29.572 65.4897 30.0583 65.9992 30.6582 65.9992H37.1755C37.7754 65.9992 38.2617 65.4897 38.2617 64.8612V19.344C38.2617 18.7155 37.7754 18.2061 37.1755 18.2061Z" fill="#00B0EB"/>
<path d="M4.58916 21.6199H9.47709C10.1973 21.6199 10.888 21.9196 11.3973 22.4531C11.9065 22.9866 12.1926 23.7102 12.1926 24.4647C12.1926 25.2192 11.9065 25.9428 11.3973 26.4763C10.888 27.0098 10.1973 27.3095 9.47709 27.3095H4.58916C4.013 27.3095 3.46044 27.0697 3.05303 26.6429C2.64563 26.2161 2.41675 25.6373 2.41675 25.0337V23.8957C2.41675 23.2921 2.64563 22.7133 3.05303 22.2865C3.46044 21.8597 4.013 21.6199 4.58916 21.6199ZM4.58916 32.9992H9.47709C10.1973 32.9992 10.888 33.2989 11.3973 33.8324C11.9065 34.3659 12.1926 35.0895 12.1926 35.844C12.1926 36.5985 11.9065 37.3221 11.3973 37.8556C10.888 38.3891 10.1973 38.6888 9.47709 38.6888H4.58916C4.013 38.6888 3.46044 38.4491 3.05303 38.0223C2.64563 37.5954 2.41675 37.0166 2.41675 36.413V35.275C2.41675 34.6714 2.64563 34.0926 3.05303 33.6658C3.46044 33.239 4.013 32.9992 4.58916 32.9992Z" fill="#FDD7AD"/>
<path d="M4.58916 38.6889H8.39089C9.11109 38.6889 9.80179 38.9886 10.311 39.5221C10.8203 40.0556 11.1064 40.7792 11.1064 41.5337C11.1064 42.2882 10.8203 43.0118 10.311 43.5453C9.80179 44.0788 9.11109 44.3785 8.39089 44.3785H4.58916C4.013 44.3785 3.46044 44.1388 3.05303 43.712C2.64563 43.2851 2.41675 42.7063 2.41675 42.1027V40.9647C2.41675 40.3611 2.64563 39.7823 3.05303 39.3555C3.46044 38.9287 4.013 38.6889 4.58916 38.6889ZM4.58916 27.3096H11.6495C12.3697 27.3096 13.0604 27.6093 13.5697 28.1428C14.0789 28.6763 14.365 29.3999 14.365 30.1544C14.365 30.9089 14.0789 31.6325 13.5697 32.166C13.0604 32.6995 12.3697 32.9992 11.6495 32.9992H4.58916C4.013 32.9992 3.46044 32.7594 3.05303 32.3326C2.64563 31.9058 2.41675 31.327 2.41675 30.7234V29.5854C2.41675 28.9818 2.64563 28.403 3.05303 27.9762C3.46044 27.5493 4.013 27.3096 4.58916 27.3096Z" fill="#F9C795"/>
<path d="M63.2443 27.3095H58.3564C57.6362 27.3095 56.9455 27.0098 56.4362 26.4763C55.927 25.9428 55.6409 25.2192 55.6409 24.4647C55.6409 23.7102 55.927 22.9866 56.4362 22.4531C56.9455 21.9196 57.6362 21.6199 58.3564 21.6199H63.2443C63.8205 21.6199 64.373 21.8597 64.7804 22.2865C65.1879 22.7133 65.4167 23.2921 65.4167 23.8957V25.0337C65.4167 25.6373 65.1879 26.2161 64.7804 26.6429C64.373 27.0697 63.8205 27.3095 63.2443 27.3095ZM63.2443 38.6888H58.3564C57.6362 38.6888 56.9455 38.3891 56.4362 37.8556C55.927 37.3221 55.6409 36.5985 55.6409 35.844C55.6409 35.0895 55.927 34.3659 56.4362 33.8324C56.9455 33.2989 57.6362 32.9992 58.3564 32.9992H63.2443C63.8205 32.9992 64.373 33.239 64.7804 33.6658C65.1879 34.0926 65.4167 34.6714 65.4167 35.275V36.413C65.4167 37.0166 65.1879 37.5954 64.7804 38.0223C64.373 38.4491 63.8205 38.6888 63.2443 38.6888Z" fill="#FDD7AD"/>
<path d="M63.2441 44.3785H59.4424C58.7222 44.3785 58.0315 44.0788 57.5222 43.5453C57.013 43.0118 56.7269 42.2882 56.7269 41.5337C56.7269 40.7792 57.013 40.0556 57.5222 39.5221C58.0315 38.9886 58.7222 38.6889 59.4424 38.6889H63.2441C63.8203 38.6889 64.3728 38.9287 64.7803 39.3555C65.1877 39.7823 65.4165 40.3611 65.4165 40.9647V42.1027C65.4165 42.7063 65.1877 43.2851 64.7803 43.712C64.3728 44.1388 63.8203 44.3785 63.2441 44.3785ZM63.2441 32.9992H56.1838C55.4636 32.9992 54.7729 32.6995 54.2636 32.166C53.7544 31.6325 53.4683 30.9089 53.4683 30.1544C53.4683 29.3999 53.7544 28.6763 54.2636 28.1428C54.7729 27.6093 55.4636 27.3096 56.1838 27.3096H63.2441C63.8203 27.3096 64.3728 27.5493 64.7803 27.9762C65.1877 28.403 65.4165 28.9818 65.4165 29.5854V30.7234C65.4165 31.327 65.1877 31.9058 64.7803 32.3326C64.3728 32.7594 63.8203 32.9992 63.2441 32.9992Z" fill="#F9C795"/>
</svg>
